<svg xmlns="http://www.w3.org/2000/svg" width="24" height="24" viewBox="0 0 24 24"><g fill="none" fill-rule="evenodd"><path fill="#EBF0FF" fill-rule="nonzero" d="M12,24.0232 C18.62744,24.0232 24,18.6448 24,12.0112 C24,5.3776 18.62744,0 12,0 C5.37256,0 0,5.3776 0,12.0112 C0,18.6448 5.37256,24.0232 12,24.0232 Z"/><path fill="#2B58D4" d="M13.7505918,2.71936116 L13.7505918,12.1444182 C13.7505918,12.8217235 13.2491692,13.3874814 12.5885296,13.5071298 L12.5877403,13.8324308 C12.5877403,14.2923819 12.204737,14.666667 11.7340728,14.666667 L10.5958407,14.666667 C10.1251764,14.666667 9.74217319,14.2923819 9.74217319,13.8324308 L9.74190526,13.5295239 L6.34761933,13.5295239 L6.34832959,13.8324308 C6.34832959,14.257001 6.02198678,14.6085774 5.6015935,14.6601539 L5.49467026,14.666667 L4.35642202,14.666667 C3.88576221,14.666667 3.50276246,14.2923819 3.50276246,13.8324308 L3.50176405,13.5016457 C2.85533452,13.3710543 2.36832414,12.8119048 2.36832414,12.1444182 L2.36832414,2.71936116 C2.36832414,1.9553865 3.0062834,1.33333333 3.7911009,1.33333333 L12.327815,1.33333333 C13.1126326,1.33333333 13.7505918,1.9553865 13.7505918,2.71936116 Z M4.0756671,11.0355801 C4.0756671,11.4940896 4.45867206,11.8672023 4.92933847,11.8672023 C5.3999782,11.8672023 5.78301006,11.4940896 5.78301006,11.0355801 C5.78301006,10.5770706 5.40000488,10.2039579 4.92933847,10.2039579 C4.45867206,10.2039579 4.0756671,10.5770706 4.0756671,11.0355801 Z M10.3359063,11.0355801 C10.3359063,11.4940896 10.7189119,11.8672023 11.1895784,11.8672023 C11.6602447,11.8672023 12.0432495,11.4940896 12.0432495,11.0355801 C12.0432495,10.5770706 11.6602447,10.2039579 11.1895784,10.2039579 C10.7189119,10.2039579 10.3359063,10.5770706 10.3359063,11.0355801 Z M4.72406052,4.65982096 C4.29968827,4.65982096 3.95435496,5.03293338 3.95435496,5.49144292 L3.95435496,8.26352445 C3.95435496,8.72203399 4.29968827,9.09514619 4.72406052,9.09514619 L11.3948563,9.09514619 C11.8192286,9.09514619 12.1645614,8.72203399 12.1645614,8.26352445 L12.1645614,5.49144292 C12.1645614,5.03293338 11.819204,4.65982096 11.3948318,4.65982096 L4.72406052,4.65982096 Z M15.3333333,4.84302134 L15.3333333,7.55626049 C15.3333333,7.65394351 15.2541461,7.73313166 15.1564631,7.73313166 L14.4567976,7.73313166 C14.3591147,7.73313166 14.2799265,7.65394351 14.2799265,7.55626049 L14.2799265,4.84302134 C14.2799265,4.74533832 14.3591147,4.66615063 14.4567976,4.66615063 L15.1564631,4.66615063 C15.2541461,4.66615063 15.3333333,4.74533832 15.3333333,4.84302134 Z M1.72007366,4.84302134 L1.72007366,7.55626049 C1.72007366,7.65394351 1.64088596,7.73313166 1.54320294,7.73313166 L0.843537423,7.73313166 C0.745854405,7.73313166 0.666666667,7.65394351 0.666666667,7.55626049 L0.666666667,4.84302134 C0.666666667,4.74533832 0.745854405,4.66615063 0.843537423,4.66615063 L1.54320294,4.66615063 C1.64088596,4.66615063 1.72007366,4.74533832 1.72007366,4.84302134 Z M5.60606805,2.44217117 C5.23270387,2.44217117 4.92887844,2.65210106 4.92887844,2.91007922 C4.92887844,3.16805738 5.23270387,3.37798728 5.60606805,3.37798728 L10.5721314,3.37798728 C10.9454957,3.37798728 11.2493211,3.16805738 11.2493211,2.91007922 C11.2493211,2.65210106 10.9454957,2.44217117 10.5721314,2.44217117 L5.60606805,2.44217117 Z" transform="translate(4 4)"/></g></svg>