<svg xmlns="http://www.w3.org/2000/svg" width="24" height="24" viewBox="0 0 24 24"><g fill="none"><circle cx="12" cy="12" r="12" fill="#E8FFC8"/><path fill="#569400" d="M9.59792866,5.26258403 C10.2064971,5.26258403 10.7043968,4.75298318 10.7043968,4.13074523 C10.7043968,3.50850729 10.2064971,3 9.59792866,3 C8.98946962,3 8.49156991,3.50850729 8.49156991,4.13074523 C8.49156991,4.75298318 8.98946962,5.26258403 9.59792866,5.26258403 Z M12.0828343,8.68325239 L12.0828343,7.55250716 C11.2530379,7.55250716 10.5614679,7.2408414 10.0635682,6.73233412 L8.98487665,5.65736065 C8.81887363,5.45833199 8.54220192,5.31726223 8.2379724,5.31726223 C7.93374288,5.31726223 7.65707118,5.43099289 7.46351034,5.65736065 L5.94214403,7.21240874 C5.74847383,7.41034383 5.61013798,7.69357692 5.61013798,8.00524267 C5.61013798,8.31581487 5.74847383,8.59904796 5.94214403,8.82541572 L7.68473835,10.4088965 L7.68473835,13.2379467 L8.79120646,13.2379467 L8.79120646,9.70245409 L7.57406967,8.45797819 L8.87420797,7.09977164 L9.28910617,7.52407449 C9.98067608,8.25894954 10.948699,8.68325239 12.0828343,8.68325239 Z M3.76617027,8.79479592 C2.24480396,8.79479592 1,10.0677045 1,11.6227526 C1,13.1788942 2.24480396,14.4518028 3.76617027,14.4518028 C5.28753659,14.4518028 6.53223119,13.1788942 6.53223119,11.6227526 C6.53223119,10.0677045 5.28742723,8.79479592 3.76617027,8.79479592 Z M3.76617027,13.6031971 C2.68736934,13.6031971 1.82990576,12.7261587 1.82990576,11.6227526 C1.82990576,10.52044 2.68736934,9.64340163 3.76617027,9.64340163 C4.84486186,9.64340163 5.70243479,10.52044 5.70243479,11.6227526 C5.70243479,12.7261587 4.84486186,13.6031971 3.76617027,13.6031971 Z M11.8339391,8.79479592 C10.3125728,8.79479592 9.06776881,10.0677045 9.06776881,11.6227526 C9.06776881,13.1788942 10.3125728,14.4518028 11.8339391,14.4518028 C13.3553054,14.4518028 14.6,13.1788942 14.6,11.6227526 C14.6,10.0677045 13.3553054,8.79479592 11.8339391,8.79479592 Z M11.8339391,13.6031971 C10.7551381,13.6031971 9.89767457,12.7261587 9.89767457,11.6227526 C9.89767457,10.52044 10.7551381,9.64340163 11.8339391,9.64340163 C12.9126307,9.64340163 13.7702036,10.52044 13.7702036,11.6227526 C13.7702036,12.7261587 12.9126307,13.6031971 11.8339391,13.6031971 Z" transform="translate(4 3.58)"/></g></svg>