<svg xmlns="http://www.w3.org/2000/svg" width="24" height="24" viewBox="0 0 24 24"><g fill="none" fill-rule="evenodd"><circle cx="12" cy="12" r="12" fill="#ECECF4" fill-rule="nonzero"/><path fill="#3D3A92" d="M12.6082673,3.71505232 C12.9954673,4.3338173 13.1582672,5.07264123 13.4398672,5.74681802 C13.7596005,6.68420075 14.1746674,7.59079891 14.431334,8.54973081 C14.4812007,9.88730985 14.4503996,11.2310471 14.4459996,12.5701654 C14.4591996,13.0073028 14.1233329,13.3166839 13.7713329,13.4736841 L12.2196008,13.4736841 C11.5581342,13.288978 11.4539999,12.5439985 11.5082666,11.9344688 L4.49173339,11.9344688 C4.54453339,12.5409201 4.44333367,13.2705075 3.79800034,13.4736841 L2.24626696,13.4736841 C1.81360029,13.3228408 1.49386689,12.8995565 1.54520023,12.4085465 C1.5774669,11.0802029 1.4792,9.74108403 1.59653334,8.42043642 C2.07466668,6.99666122 2.59386634,5.58520035 3.14093304,4.19067037 C3.44159971,3.39027785 4.28493377,3.05165009 5.03146712,2.91004219 C6.87800046,2.59604206 8.77146705,2.59604208 10.6253336,2.85155199 C11.3337337,2.95929714 12.0978673,3.1501599 12.6082673,3.71505232 Z M3.91051706,5.57828772 C3.72654839,6.12010527 3.43245772,6.63699616 3.37804445,7.2142351 C3.4467088,7.59862378 3.91829076,7.59468823 4.22145041,7.62355021 C6.78405615,7.62223828 9.34795789,7.63273337 11.9105636,7.61830238 C12.2098366,7.62223809 12.6982604,7.49760685 12.6244138,7.09878718 C12.4171252,6.35493599 12.0854626,5.64912983 11.8237607,4.92364545 C11.6410875,4.39232318 11.041246,4.22571114 10.5528221,4.12469438 C9.2093326,3.90691784 7.83863727,3.87280842 6.48348776,3.99350384 C5.78518422,4.07615393 5.02080672,4.1037042 4.43910297,4.55631212 C4.14760331,4.82000532 4.06598353,5.23063244 3.91051706,5.57828772 Z M4.9361337,10.5707233 C5.58293372,10.2136251 5.45239987,9.07614279 4.73813319,8.89605446 C4.18373321,8.82371131 3.61026672,8.81909375 3.05880006,8.912986 C2.61880007,9.1161626 2.6275997,9.80573252 3.02506638,10.0520071 C3.5603997,10.4460465 4.27466704,10.9509098 4.9361337,10.5707233 Z M11.9424003,10.6476827 C12.3692003,10.4845258 12.776934,10.241329 13.1142673,9.92117194 C13.419334,9.60255411 13.2697333,8.94992682 12.8253333,8.88374046 C12.3075999,8.84064246 11.7795998,8.81755443 11.2647998,8.89605446 C10.7690664,9.02996627 10.4845332,9.67797658 10.7177332,10.1582121 C10.9025332,10.6523005 11.495067,10.8154573 11.9424003,10.6476827 Z M15.3333333,7.67237786 C15.2174667,7.84784857 15.094266,8.01870156 14.971066,8.18955457 C14.7275993,7.5877209 14.5046666,6.97665222 14.3110666,6.35634799 C14.798,6.47794612 15.2673333,6.7796318 15.3333333,7.34914187 L15.3333333,7.67237786 Z M1.03186695,8.1741625 C0.907200274,8.0187017 0.78546667,7.86170103 0.666666667,7.70162252 L0.666666667,7.33067174 C0.7312,6.78117149 1.19466681,6.48102438 1.66840013,6.36096553 C1.48213346,6.97511287 1.26653363,7.57848584 1.03186695,8.1741625 Z" transform="translate(4 4)"/></g></svg>