<svg xmlns="http://www.w3.org/2000/svg" width="24" height="24" viewBox="0 0 24 24"><g fill="none" fill-rule="evenodd"><path fill="#EBF0FF" fill-rule="nonzero" d="M12,24.0232 C18.62744,24.0232 24,18.6448 24,12.0112 C24,5.3776 18.62744,0 12,0 C5.37256,0 0,5.3776 0,12.0112 C0,18.6448 5.37256,24.0232 12,24.0232 Z"/><path fill="#2B58D4" d="M14.002182,13.0950213 L14.002182,2.57002533 C14.002182,1.96675733 13.6709187,1.33348467 12.675776,1.33348467 C11.9218793,1.33348467 11.6200207,1.665048 11.2880047,2.32877867 L8.03132133,9.11429867 L8.000412,9.11429867 L4.71493133,2.32862733 C4.38246333,1.665048 4.08045267,1.33333333 3.32670733,1.33333333 C2.33126267,1.33333333 2,1.966606 2,2.569874 L2,13.0948713 C2,13.6676827 2.45263933,13.99985 2.995294,13.99985 C3.47869267,13.99985 4.02029133,13.6676827 4.02029133,13.0948713 L4.02029133,5.25434867 L4.05089933,5.25434867 L7.03648133,11.34553 C7.24712,11.7675613 7.518522,12.0088093 8.00071467,12.0088093 C8.483812,12.0088093 8.75491333,11.7674107 8.96585333,11.34553 L11.9524893,5.25434867 L11.9823433,5.25434867 L11.9823433,13.0950213 C11.9823433,13.6678327 12.524394,14 13.007792,14 C13.5493913,14 14.002182,13.6678327 14.002182,13.0950213 Z" transform="translate(4 4)"/></g></svg>