<svg xmlns="http://www.w3.org/2000/svg" width="24" height="24" viewBox="0 0 24 24"><g fill="none"><path fill="#EBF0FF" d="M12,24 C18.6274182,24 24,18.6276364 24,12 C24,5.37236364 18.6274182,0 12,0 C5.37258182,0 0,5.37236364 0,12 C0,18.6276364 5.37258182,24 12,24 Z"/><path fill="#2B58D4" d="M13.3121648,6.65025837 C13.8150109,6.65025837 14.2295758,7.05773525 14.279457,7.57790112 L14.2844994,7.68405742 L14.2844994,14.7107879 C14.2844994,15.2162552 13.9417697,15.637614 13.4902788,15.726622 L13.4898133,15.9691483 C13.4898133,16.2835343 13.2698861,16.5440255 12.9854933,16.5856715 L12.9064436,16.5913876 L12.1285915,16.5913876 C11.8338036,16.5913876 11.5892848,16.3570271 11.5505745,16.0540734 L11.5452218,15.9691483 L11.5447564,15.7437703 L9.22524121,15.7437703 L9.22601697,15.9691483 C9.22601697,16.2835343 9.0060897,16.5440255 8.72169697,16.5856715 L8.64264727,16.5913876 L7.86479515,16.5913876 C7.57000727,16.5913876 7.32548848,16.3570271 7.28677818,16.0540734 L7.28142545,15.9691483 L7.28196848,15.7233557 C6.87120485,15.6327145 6.55438545,15.2668836 6.51125333,14.8161276 L6.50621091,14.7107879 L6.50621091,7.68405742 C6.50621091,7.15000957 6.88935758,6.70905263 7.37917091,6.65597448 L7.47846788,6.65025837 L13.3121648,6.65025837 Z M8.25632,13.2637959 C7.93469091,13.2637959 7.6729503,13.542252 7.6729503,13.8844019 C7.6729503,14.2257352 7.93469091,14.5041914 8.25632,14.5041914 C8.57794909,14.5041914 8.8396897,14.2257352 8.8396897,13.8844019 C8.8396897,13.542252 8.57794909,13.2637959 8.25632,13.2637959 Z M12.5343903,13.2637959 C12.2126836,13.2637959 11.9510206,13.542252 11.9510206,13.8844019 C11.9510206,14.2257352 12.2126836,14.5041914 12.5343903,14.5041914 C12.8560194,14.5041914 13.11776,14.2257352 13.11776,13.8844019 C13.11776,13.542252 12.8560194,13.2637959 12.5343903,13.2637959 Z M12.6746473,9.13023285 L8.11606303,9.13023285 C7.85021091,9.13023285 7.62974061,9.3645933 7.59483152,9.66673046 L7.59002182,9.75083892 L7.59002182,11.8176204 C7.59002182,12.1303732 7.78830545,12.3908644 8.04477091,12.4316938 L8.11606303,12.4374099 L12.6746473,12.4374099 C12.9404994,12.4374099 13.1608921,12.203866 13.1958012,11.9017289 L13.2006109,11.8176204 L13.2006109,9.75083892 C13.2006109,9.408689 12.9646255,9.13023285 12.6746473,9.13023285 Z M15.2626521,9.13513238 C15.3197479,9.13513238 15.3660606,9.18412759 15.3660606,9.24373844 L15.3660606,11.3129697 C15.3660606,11.3733971 15.3197479,11.4215758 15.2626521,11.4215758 L14.7495661,11.4215758 C14.6924703,11.4215758 14.6462352,11.3733971 14.6462352,11.3129697 L14.6462352,9.24373844 C14.6462352,9.18412759 14.6924703,9.13513238 14.7495661,9.13513238 L15.2626521,9.13513238 Z M5.95984485,9.13513238 C6.01694061,9.13513238 6.06317576,9.18412759 6.06317576,9.24373844 L6.06317576,11.3129697 C6.06317576,11.3733971 6.01694061,11.4215758 5.95984485,11.4215758 L5.44675879,11.4215758 C5.38966303,11.4215758 5.3433503,11.3733971 5.3433503,11.3129697 L5.3433503,9.24373844 C5.3433503,9.18412759 5.38966303,9.13513238 5.44675879,9.13513238 L5.95984485,9.13513238 Z M6.64026182,0.259649123 C7.37831758,0.259649123 7.97665939,0.873722488 7.97665939,1.63069856 L7.97665939,6.20930144 L7.39817697,6.21011802 C7.24411152,6.21011802 7.09617455,6.23788198 6.9584,6.28851037 C6.88858182,5.97739075 6.58533818,5.74221372 6.22267152,5.74221372 C5.80795152,5.74221372 5.47096242,6.0492504 5.47096242,6.42733014 C5.47096242,6.78499522 5.77172364,7.07896651 6.15463758,7.10999681 C6.10972121,7.23003509 6.0800097,7.35905582 6.06790788,7.49379266 L6.06185697,7.63016268 L6.06162424,8.14052951 L2.69724121,8.14134609 L2.29710545,8.99794577 L4.86261333,8.99794577 L4.86230303,9.62753429 L1.77928727,9.62835088 L1.62894545,9.9264051 C1.52871758,10.1011547 1.35331879,10.2007783 1.17792,10.2007783 C1.11213576,10.2007783 1.04635152,10.2007783 0.980567273,10.1672982 L0.927893333,10.1362679 C0.728135758,10.009697 0.638613333,9.74103987 0.738453333,9.50749601 L0.751951515,9.47891547 L1.43081697,8.19932376 C1.28326788,8.13318022 1.14952727,8.0409059 1.03533576,7.92821691 C0.794152727,7.75265072 0.641018182,7.47174482 0.627597576,7.15817544 L0.626666667,7.11326316 L0.637061818,7.11326316 C0.630157576,7.05691866 0.626666667,6.99975758 0.626666667,6.9417799 L0.626666667,1.63069856 C0.626666667,0.873722488 1.22500848,0.259649123 1.96306424,0.259649123 L6.64026182,0.259649123 Z M12.1123782,7.47746093 L8.71874909,7.47746093 C8.46360242,7.47746093 8.2560097,7.63342903 8.2560097,7.82614354 C8.2560097,7.99681021 8.42008242,8.13971292 8.63566545,8.16911005 L8.71874909,8.17482616 L12.1123782,8.17482616 C12.3675248,8.17482616 12.5751952,8.01804147 12.5751952,7.82614354 C12.5751952,7.63342903 12.3675248,7.47746093 12.1123782,7.47746093 Z M2.38065455,5.74221372 C1.96593455,5.74221372 1.62894545,6.0492504 1.62894545,6.42733014 C1.62894545,6.80540989 1.96593455,7.11326316 2.38065455,7.11326316 C2.79537455,7.11326316 3.13236364,6.80540989 3.13236364,6.42733014 C3.13236364,6.0492504 2.79537455,5.74221372 2.38065455,5.74221372 Z M4.13464242,1.97284848 L1.62894545,1.97284848 L1.62894545,4.71413078 L4.13464242,4.71413078 L4.13464242,1.97284848 Z M6.97438061,1.97284848 L4.46868364,1.97284848 L4.46868364,4.71413078 L6.97438061,4.71413078 L6.97438061,1.97284848 Z" transform="translate(4 3.58)"/></g></svg>