<svg xmlns="http://www.w3.org/2000/svg" width="24" height="24" viewBox="0 0 24 24"><g fill="none" fill-rule="evenodd"><path fill="#EBF0FF" fill-rule="nonzero" d="M12,24.0232 C18.62744,24.0232 24,18.6448 24,12.0112 C24,5.3776 18.62744,0 12,0 C5.37256,0 0,5.3776 0,12.0112 C0,18.6448 5.37256,24.0232 12,24.0232 Z"/><path fill="#2B58D4" d="M12.181064,1.14824292 C12.2466575,1.21131361 12.288523,1.29505367 12.2996174,1.38537164 C12.2996174,1.5268106 12.355804,1.66245652 12.4558165,1.76246896 C12.5558289,1.8624814 12.6914757,1.91866775 12.8329147,1.91866775 C12.9743537,1.91866775 13.1099994,1.8624814 13.2100118,1.76246896 C13.3100243,1.66245652 13.3662109,1.5268106 13.3662109,1.38537164 C13.3595287,1.01286661 13.2057481,0.658132475 12.9384407,0.398610837 C12.6711334,0.139089199 12.3120099,-0.00414172862 11.93947,9.12225331e-05 L4.06007409,9.12225331e-05 C3.68753417,-0.00414172862 3.32841085,0.139089199 3.06110351,0.398610837 C2.79379617,0.658132475 2.64001558,1.01286661 2.63333333,1.38537164 C2.63865232,1.52382614 2.69696654,1.65494399 2.79622144,1.75162081 C2.89547633,1.84829764 3.02808314,1.9031417 3.16662968,1.90481594 C3.30440646,1.90069892 3.43562821,1.84505571 3.5343685,1.74888012 C3.63310879,1.65270452 3.69218535,1.52299238 3.69992602,1.38537164 L3.69992602,1.34727906 C3.70267213,1.30315412 3.71425287,1.26003014 3.73398125,1.22046572 C3.75370963,1.1809013 3.7811837,1.14570237 3.81477347,1.11695728 C3.84836323,1.0882122 3.88738434,1.06650651 3.92952184,1.05312802 C3.97165933,1.03974954 4.01605471,1.03497075 4.06007409,1.03907524 L7.45954994,1.03907524 L7.45954994,2.4011737 L5.91275955,2.4011737 C5.50563853,2.39491175 5.10127321,2.4689304 4.72276859,2.61900033 C4.34426398,2.76907025 3.99903832,2.99225045 3.70681745,3.27578825 C3.41459659,3.55932605 3.18110775,3.89766435 3.01969218,4.27147138 C2.85827661,4.64527841 2.77209794,5.04722767 2.76608026,5.45435229 L2.76608026,11.6934572 C2.76345473,12.0328867 2.88555326,12.361465 3.10919639,12.6168139 C3.33283952,12.8721628 3.64245747,13.0365051 3.9792717,13.078642 L2.94038274,14.9982777 C2.86191994,15.1617679 2.84855613,15.3489757 2.9030002,15.5219535 C2.95744426,15.6949313 3.07562266,15.8407369 3.23358026,15.9298148 C3.33027747,15.9857064 3.44232998,16.0091682 3.55332721,15.9967649 C3.68675407,15.996116 3.81760214,15.9599528 3.93242573,15.8919919 C4.04724932,15.824031 4.14190745,15.7267232 4.20667298,15.6100674 L4.4202223,15.1968208 L5.48681485,13.1305865 L10.4596303,13.1305865 L11.5527724,15.2903211 L11.713223,15.6100674 C11.7778952,15.7268027 11.8725321,15.8241771 11.9873766,15.8921504 C12.1022212,15.9601238 12.233117,15.9962361 12.3665687,15.9967649 C12.4758733,15.9826744 12.5831728,15.955946 12.686315,15.9171165 L12.7659634,15.8767155 C12.8387328,15.8321497 12.901995,15.7736655 12.9521265,15.7046125 C13.0022579,15.6355595 13.0382734,15.557295 13.0581104,15.4743012 C13.0779475,15.3913073 13.0812168,15.3052147 13.0677296,15.2209557 C13.0542425,15.1366967 13.0242647,15.0559263 12.9795133,14.9832709 L11.9406237,13.0774883 C12.2737799,13.026877 12.5783015,12.8600691 12.8003231,12.6065717 C13.0223446,12.3530742 13.1475588,12.0292228 13.1538158,11.6923024 L13.1538158,5.34353782 C13.1323682,4.54787306 12.7957314,3.79331415 12.2179577,3.24584716 C11.640184,2.69838017 10.8685986,2.40284769 10.0729327,2.42426009 L8.52614235,2.42426009 L8.52614235,1.03907524 L11.93947,1.03907524 C12.0301535,1.04662059 12.1154704,1.08517223 12.181064,1.14824292 Z M5.12666692,11.6934572 C4.99409381,11.7031592 4.86092047,11.6861992 4.73501069,11.643579 C4.60910092,11.6009587 4.49300727,11.5335421 4.39358471,11.44531 C4.29416215,11.3570779 4.2134263,11.2498192 4.15614454,11.1298669 C4.09886278,11.0099146 4.06619631,10.879701 4.06007409,10.7469145 C4.06701372,10.6138593 4.10012048,10.4834773 4.15749996,10.36323 C4.21487944,10.2429826 4.29540551,10.1352292 4.39447103,10.0461345 C4.49353656,9.95703992 4.60919724,9.88835342 4.73483538,9.84400378 C4.86047352,9.79965414 4.9936235,9.78051216 5.12666692,9.78767348 C5.39680436,9.77488106 5.66128269,9.8679323 5.86389904,10.0470537 C6.06651538,10.2261752 6.19129748,10.4772472 6.2117285,10.7469145 C6.20321797,10.8800052 6.16852404,11.0101068 6.10963546,11.1297634 C6.05074688,11.2494201 5.96882174,11.3562788 5.86855589,11.4442124 C5.76829004,11.5321461 5.6516551,11.5994257 5.52533704,11.6421963 C5.39901899,11.6849669 5.26550165,11.702387 5.13243838,11.6934572 M10.4720572,11.641876 C10.3458042,11.5990471 10.2292292,11.5317568 10.1289955,11.4438514 C10.0287619,11.355946 9.94683485,11.2491487 9.88789699,11.1295642 C9.82895912,11.0099796 9.79416626,10.8799526 9.78550672,10.7469145 C9.80592562,10.4782899 9.92989469,10.2281003 10.1312583,10.0491343 C10.332622,9.8701684 10.5956323,9.7764219 10.8647968,9.78767348 C11.1341562,9.77611463 11.3974596,9.8697224 11.5990735,10.0487193 C11.8006874,10.2277163 11.9248198,10.4780818 11.9452418,10.7469145 C11.9365856,10.8800564 11.9017549,11.0101832 11.8427442,11.1298471 C11.7837334,11.249511 11.7017008,11.3563614 11.6013429,11.4442818 C11.5009849,11.5322022 11.384272,11.5994659 11.2578854,11.6422227 C11.1314988,11.6849796 10.9979205,11.7023903 10.8647968,11.6934572 C10.7317662,11.7022324 10.5983103,11.6847048 10.4720572,11.641876 Z M11.3410907,4.61514508 C11.7125408,4.97666674 11.9273842,5.46945253 11.93947,5.9876484 L11.93947,7.71912965 C11.9290276,7.89713978 11.8491865,8.06395458 11.7170969,8.18374176 C11.5850072,8.30352895 11.4112055,8.36673317 11.233025,8.35977807 L4.73996932,8.35977807 C4.65141357,8.36099868 4.56349292,8.34466753 4.48128254,8.31172724 C4.39907215,8.27878694 4.32420012,8.22989002 4.26098832,8.16785876 C4.19777652,8.10582749 4.14747686,8.03189044 4.11299274,7.9503156 C4.07850862,7.86874076 4.06052298,7.78114356 4.06007409,7.69258055 C4.07777368,7.69258055 4.08662348,7.12388508 4.08662348,5.98649416 L4.08662348,5.94724734 C4.10292068,5.43407959 4.32039305,4.9479094 4.69208195,4.59371436 C5.06377085,4.23951932 5.55985295,4.0457193 6.07321011,4.05416132 L9.95288325,4.05416132 C10.4712164,4.05220698 10.9696406,4.25362343 11.3410907,4.61514508 Z" transform="translate(4 4)"/></g></svg>