<svg xmlns="http://www.w3.org/2000/svg" width="24" height="24" viewBox="0 0 24 24"><g fill="none"><path fill="#EDEDFD" d="M12,24.0228072 C18.6274156,24.0228072 24,18.645108 24,12.0114508 C24,5.37769825 18.6274156,0 12,0 C5.37258443,0 0,5.37769825 0,12.0114508 C0,18.645108 5.37258443,24.0228072 12,24.0228072 Z"/><path fill="#78799A" d="M13.9050894,17.8576471 C13.8209139,17.8581404 13.7374318,17.8420161 13.6595846,17.8101144 C13.5816507,17.7782126 13.5108254,17.7312269 13.451183,17.6718445 C13.3321582,17.5508259 13.2654073,17.3878496 13.2654073,17.2180248 L13.2654073,14.3770351 L11.6363374,12.7503925 C11.6363374,12.7503925 11.6282752,12.8024062 11.614665,12.8847613 C11.5477407,13.2823195 11.3434134,14.4947595 11.3050099,14.613004 C11.2685136,14.7800548 11.1836446,14.932715 11.0610656,15.0519999 L8.97930287,17.4917037 C8.92668232,17.5640027 8.85958461,17.6245987 8.78225754,17.6695906 C8.70501716,17.7145825 8.61921185,17.74293 8.5303464,17.7529859 C8.50731299,17.7554999 8.48416688,17.7567136 8.46100343,17.7567136 C8.39485064,17.7568003 8.32907928,17.7467443 8.26595196,17.7269791 C8.18052808,17.7001053 8.10167528,17.6557203 8.03448221,17.5965113 C7.96729781,17.5373024 7.91325555,17.4646565 7.87584902,17.3833417 C7.83758425,17.302287 7.81650135,17.2141237 7.81391073,17.1244868 C7.81330251,17.0359767 7.83101318,16.9482469 7.8659404,16.8669321 C7.9005382,16.784317 7.95224851,16.7101107 8.0176471,16.6489079 L9.7260466,14.5504142 L10.2213906,11.7120251 C10.2263319,11.6878388 10.7167347,9.31254528 10.74959,9.19924204 L10.2133285,9.49832097 L9.40035398,11.1156878 C9.37998194,11.1950954 9.34235868,11.2690416 9.2899115,11.3321516 C9.23755102,11.3951749 9.17184035,11.4458016 9.09754741,11.4803907 C9.02438143,11.5144597 8.94480043,11.532231 8.86409247,11.5324044 L8.85975799,11.5324044 C8.73622539,11.5315375 8.6164898,11.4893197 8.51974427,11.4124261 C8.42299874,11.3355325 8.3547914,11.2284709 8.32601047,11.1083192 C8.3072942,11.0285648 8.30623659,10.9456896 8.32291566,10.8655884 C8.34015821,10.7854873 8.37483403,10.7102408 8.42446379,10.6451369 L9.34339895,8.92001503 C9.40044067,8.80463124 9.48409608,8.70450482 9.58734333,8.62769789 C9.72422612,8.56580155 11.6653784,7.4438048 11.6852303,7.43204103 C11.9384504,7.309384 12.2277334,7.28318642 12.4988983,7.35835492 C12.8125411,7.46265978 13.0929818,7.64808871 13.3118729,7.89582142 C13.3837385,7.97261102 13.8889651,9.02274213 14.1911649,9.65002767 L14.1948925,9.6580898 C14.3602095,10.0011203 14.4796677,10.2481855 14.4908506,10.2624026 C14.5044609,10.2624026 14.609702,10.2853753 14.7558606,10.3175372 L14.7651364,10.3175372 C15.1781253,10.4196574 15.5971826,10.4957709 16.0197074,10.545444 C16.1621383,10.5522057 16.2962471,10.6144488 16.3933394,10.7189097 C16.4904316,10.8233706 16.5427054,10.9617271 16.5390645,11.1042448 C16.5354235,11.2468491 16.4761279,11.3822581 16.3738342,11.4816043 C16.2715405,11.5810372 16.1343977,11.6363452 15.9917934,11.635825 L15.8810042,11.635825 L13.8995413,11.228991 C13.7529493,11.1769773 13.6328842,11.0689621 13.5657865,10.9286984 L13.0778111,9.96956532 L12.7359942,11.5956011 L14.3211992,13.2791987 C14.416471,13.3730835 14.487123,13.4889007 14.5269135,13.6165944 C14.5666173,13.7442881 14.574246,13.8797839 14.5490193,14.0111185 L14.5490193,17.2155108 C14.549106,17.3853356 14.4823551,17.5483119 14.3633303,17.6694172 C14.3033412,17.7297532 14.231909,17.7775191 14.1531949,17.8098543 C14.0744808,17.8421895 13.9901318,17.8584004 13.9050894,17.8576471 L13.9050894,17.8576471 Z M12.6610945,7.01778656 C12.4471447,7.01790775 12.2378761,6.95457237 12.0599025,6.83578169 C11.8819288,6.71699101 11.7432256,6.5480851 11.6612173,6.35043294 C11.5792956,6.15278078 11.55771,5.93525071 11.5994076,5.72537533 C11.6411053,5.51549128 11.7440925,5.32268506 11.8953657,5.17133379 C12.0465523,5.01998252 12.2393498,4.91689998 12.4492252,4.87510695 C12.6591006,4.83331392 12.8766047,4.85470023 13.0742568,4.93656117 C13.2719957,5.01842211 13.4409536,5.15706469 13.5598916,5.33497764 C13.678743,5.51288192 13.7421997,5.72205512 13.7421997,5.93603092 C13.7419397,6.22272191 13.6279429,6.49758844 13.4252628,6.70037262 C13.2225826,6.90314813 12.9477768,7.01730092 12.6610945,7.01778656 L12.6610945,7.01778656 Z"/></g></svg>